HIERARCHY
ROOT Hips
{
	OFFSET 0.000000 0.000000 0.000000
	CHANNELS 6 Xposition Yposition Zposition Zrotation Yrotation Xrotation 
	JOINT LowerBack
	{
		OFFSET 0.000000 0.000000 0.000000
		CHANNELS 3 Zrotation Yrotation Xrotation
		JOINT Spine
		{
			OFFSET 0.028270 2.035590 -0.193380
			CHANNELS 3 Zrotation Yrotation Xrotation
			JOINT Spine1
			{
				OFFSET 0.056720 2.048850 -0.042750
				CHANNELS 3 Zrotation Yrotation Xrotation
				JOINT Neck
				{
					OFFSET 0.000000 0.000000 0.000000
					CHANNELS 3 Zrotation Yrotation Xrotation
					JOINT Neck1
					{
						OFFSET -0.054170 1.746240 0.172020
						CHANNELS 3 Zrotation Yrotation Xrotation
						JOINT Head
						{
							OFFSET 0.104070 1.761360 -0.123970
							CHANNELS 3 Zrotation Yrotation Xrotation
							End Site
							{
								OFFSET 0.000000 0.000000 0.000000
							}
						}
					}
				}
				JOINT LeftShoulder
				{
					OFFSET 0.000000 0.000000 0.000000
					CHANNELS 3 Zrotation Yrotation Xrotation
					JOINT LeftArm
					{
						OFFSET 3.362410 1.200890 -0.311210
						CHANNELS 3 Zrotation Yrotation Xrotation
						JOINT LeftForeArm
						{
							OFFSET 4.983000 -0.000000 -0.000000
							CHANNELS 3 Zrotation Yrotation Xrotation
							JOINT LeftHand
							{
								OFFSET 3.483560 -0.000000 -0.000000
								CHANNELS 3 Zrotation Yrotation Xrotation
								JOINT LeftFingerBase
								{
									OFFSET 0.000000 0.000000 0.000000
									CHANNELS 3 Zrotation Yrotation Xrotation
									JOINT LeftHandIndex1
									{
										OFFSET 0.715260 -0.000000 -0.000000
										CHANNELS 3 Zrotation Yrotation Xrotation
										End Site
										{
											OFFSET 0.000000 0.000000 0.000000
										}
									}
								}
								JOINT LThumb
								{
									OFFSET 0.000000 0.000000 0.000000
									CHANNELS 3 Zrotation Yrotation Xrotation
									End Site
									{
										OFFSET 0.000000 0.000000 0.000000
									}
								}
							}
						}
					}
				}
				JOINT RightShoulder
				{
					OFFSET 0.000000 0.000000 0.000000
					CHANNELS 3 Zrotation Yrotation Xrotation
					JOINT RightArm
					{
						OFFSET -3.136600 1.374050 -0.404650
						CHANNELS 3 Zrotation Yrotation Xrotation
						JOINT RightForeArm
						{
							OFFSET -5.241900 -0.000000 -0.000000
							CHANNELS 3 Zrotation Yrotation Xrotation
							JOINT RightHand
							{
								OFFSET -3.444170 -0.000000 -0.000000
								CHANNELS 3 Zrotation Yrotation Xrotation
								JOINT RightFingerBase
								{
									OFFSET 0.000000 0.000000 0.000000
									CHANNELS 3 Zrotation Yrotation Xrotation
									JOINT RightHandIndex1
									{
										OFFSET -0.622530 -0.000000 -0.000000
										CHANNELS 3 Zrotation Yrotation Xrotation
										End Site
										{
											OFFSET 0.000000 0.000000 0.000000
										}
									}
								}
								JOINT RThumb
								{
									OFFSET 0.000000 0.000000 0.000000
									CHANNELS 3 Zrotation Yrotation Xrotation
									End Site
									{
										OFFSET 0.000000 0.000000 0.000000
									}
								}
							}
						}
					}
				}
			}
		}
	}
}
}
MOTION
Frames: 9
Frame Time: 0.008333
0.668909 17.126825 2.719068 -10.002646 -75.950691 21.994281 -3.291471 -1.836860 -0.226590 -1.148152 -1.673428 -2.851533 -5.214274 -1.687994 0.258164 7.528041 -13.807257 -7.659407 -0.885288 -0.065872 0.010534 0.000000 0.000000 0.000000 2.739276 9.135940 0.910278 -42.867642 9.442740 36.757328 -0.673630 -79.201551 0.014723 -8.101678 -8.720289 0.637589 0.072676 0.182230 0.000000 0.000000 0.000000 0.000000 0.000000 0.000000 0.000000 3.359959 -9.451645 0.415716 57.415887 -12.399751 38.075673 0.928481 65.563187 0.006130 -0.329086 5.717884 -0.018636 0.052556 -0.109634 0.000000 0.000000 0.000000 0.000000 0.000000 0.000000 0.000000 
0.683767 17.129690 2.743262 -10.771310 -75.433564 22.630219 -3.252380 -1.875406 -0.161474 -1.151900 -1.716247 -2.840794 -5.273742 -1.728585 0.235640 7.607456 -13.797594 -7.634092 -0.889039 -0.066399 0.015153 0.000000 0.000000 0.000000 2.845933 8.937575 0.919769 -42.569744 9.063258 36.947750 -0.647889 -79.514783 0.014771 -8.115615 -8.740785 0.640666 0.075532 0.185871 0.000000 0.000000 0.000000 0.000000 0.000000 0.000000 0.000000 3.422012 -9.469741 0.419387 57.646561 -12.595530 38.189257 0.926582 65.502489 0.006050 -0.294603 5.743702 -0.016946 0.051036 -0.109314 0.000000 0.000000 0.000000 0.000000 0.000000 0.000000 0.000000 
0.699365 17.132588 2.765904 -11.497916 -74.895813 23.213820 -3.211765 -1.917003 -0.090563 -1.155150 -1.762294 -2.829164 -5.332040 -1.772449 0.211566 7.678423 -13.790944 -7.602306 -0.891015 -0.066889 0.021505 0.000000 0.000000 0.000000 2.960018 8.704761 0.930385 -42.260828 8.666873 37.127874 -0.623215 -79.809916 0.014809 -8.134806 -8.761965 0.644142 0.078536 0.189530 0.000000 0.000000 0.000000 0.000000 0.000000 0.000000 0.000000 3.465656 -9.493041 0.423051 57.899691 -12.810671 38.278740 0.923889 65.445076 0.005945 -0.269562 5.756976 -0.015555 0.049572 -0.108939 0.000000 0.000000 0.000000 0.000000 0.000000 0.000000 0.000000 
0.715774 17.135625 2.787177 -12.192691 -74.337361 23.754576 -3.164993 -1.960629 -0.013036 -1.156929 -1.810811 -2.816440 -5.388562 -1.818831 0.186230 7.739357 -13.787319 -7.562824 -0.891450 -0.067384 0.029934 0.000000 0.000000 0.000000 3.080804 8.434959 0.941801 -41.947167 8.252667 37.292427 -0.600154 -80.078132 0.014840 -8.158883 -8.783767 0.648116 0.081655 0.193169 0.000000 0.000000 0.000000 0.000000 0.000000 0.000000 0.000000 3.490067 -9.521618 0.426793 58.172662 -13.043810 38.343342 0.920491 65.389302 0.005816 -0.255539 5.756931 -0.014764 0.048189 -0.108483 0.000000 0.000000 0.000000 0.000000 0.000000 0.000000 0.000000 
0.733087 17.138918 2.807198 -12.856426 -73.760149 24.252107 -3.112168 -2.005427 0.071428 -1.157293 -1.860926 -2.802433 -5.443022 -1.866858 0.160092 7.790749 -13.786813 -7.514817 -0.890706 -0.067928 0.040658 0.000000 0.000000 0.000000 3.209812 8.127695 0.953652 -41.634106 7.818679 37.436952 -0.579163 -80.310928 0.014863 -8.187570 -8.805438 0.652491 0.084862 0.196742 0.000000 0.000000 0.000000 0.000000 0.000000 0.000000 0.000000 3.497660 -9.555582 0.430458 58.461126 -13.292426 38.385000 0.916362 65.335185 0.005662 -0.252437 5.743574 -0.014574 0.046881 -0.107940 0.000000 0.000000 0.000000 0.000000 0.000000 0.000000 0.000000 
0.751274 17.142631 2.826098 -13.495812 -73.166640 24.713262 -3.051399 -2.050302 0.162443 -1.155947 -1.911648 -2.787300 -5.495386 -1.915570 0.132931 7.833361 -13.788256 -7.457021 -0.889424 -0.068594 0.054039 0.000000 0.000000 0.000000 3.347783 7.780391 0.965264 -41.326341 7.369073 37.557105 -0.560479 -80.503916 0.014873 -8.220976 -8.826230 0.657064 0.088154 0.200195 0.000000 0.000000 0.000000 0.000000 0.000000 0.000000 0.000000 3.491745 -9.593469 0.434174 58.759545 -13.555080 38.406576 0.911578 65.284038 0.005486 -0.257686 5.717705 -0.014685 0.045622 -0.107308 0.000000 0.000000 0.000000 0.000000 0.000000 0.000000 0.000000 
0.770358 17.146839 2.843967 -14.110617 -72.561286 25.137781 -2.984490 -2.094799 0.259291 -1.153239 -1.962394 -2.770523 -5.545437 -1.964325 0.107182 7.869555 -13.793482 -7.391095 -0.887598 -0.069351 0.069578 0.000000 0.000000 0.000000 3.496037 7.405501 0.977065 -41.025231 6.886895 37.657554 -0.544429 -80.648086 0.014877 -8.255412 -8.846442 0.661838 0.091414 0.203528 0.000000 0.000000 0.000000 0.000000 0.000000 0.000000 0.000000 3.476536 -9.637864 0.437026 59.061586 -13.822541 38.416840 0.905951 65.235842 0.005294 -0.269921 5.682705 -0.015195 0.044374 -0.106608 0.000000 0.000000 0.000000 0.000000 0.000000 0.000000 0.000000 
0.790337 17.151675 2.861094 -14.726385 -71.947694 25.551085 -2.903201 -2.137246 0.360681 -1.147762 -2.011979 -2.753515 -5.593922 -2.012089 0.078779 7.899765 -13.796102 -7.313428 -0.886778 -0.070393 0.088362 0.000000 0.000000 0.000000 3.651284 6.986352 0.987420 -40.733402 6.405281 37.726613 -0.530662 -80.753011 0.014860 -8.295755 -8.863976 0.666710 0.094772 0.206641 0.000000 0.000000 0.000000 0.000000 0.000000 0.000000 0.000000 3.456211 -9.680269 0.440357 59.358075 -14.100643 38.417085 0.899769 65.197442 0.005093 -0.283000 5.639855 -0.015607 0.043083 -0.105859 0.000000 0.000000 0.000000 0.000000 0.000000 0.000000 0.000000 
0.810875 17.157177 2.877062 -15.301588 -71.334434 25.918878 -2.825478 -2.179194 0.462895 -1.142836 -2.060854 -2.734518 -5.639992 -2.059086 0.056706 7.929842 -13.803271 -7.231947 -0.885246 -0.071434 0.108045 0.000000 0.000000 0.000000 3.819272 6.570310 0.999448 -40.443914 5.857824 37.790263 -0.519656 -80.799082 0.014852 -8.329074 -8.880823 0.671086 0.097852 0.209637 0.000000 0.000000 0.000000 0.000000 0.000000 0.000000 0.000000 3.435981 -9.731372 0.440634 59.648699 -14.368091 38.422345 0.892440 65.162429 0.004879 -0.296286 5.596503 -0.016119 0.041684 -0.105109 0.000000 0.000000 0.000000 0.000000 0.000000 0.000000 0.000000 
